<svg xmlns="http://www.w3.org/2000/svg" xmlns:xlink="http://www.w3.org/1999/xlink" width="500" zoomAndPan="magnify" viewBox="0 0 375 74.999997" height="100" preserveAspectRatio="xMidYMid meet" version="1.0"><defs><g/><clipPath id="id1"><path d="M 146.261719 2 L 202 2 L 202 73 L 146.261719 73 Z M 146.261719 2 " clip-rule="nonzero"/></clipPath></defs><g clip-path="url(#id1)"><path fill="#000000" d="M 161.429688 2.226562 C 160.984375 2.253906 160.589844 2.414062 160.253906 2.707031 C 159.769531 2.4375 159.253906 2.332031 158.703125 2.382812 C 158.152344 2.4375 157.664062 2.640625 157.238281 2.996094 C 156.832031 2.855469 156.425781 2.847656 156.011719 2.964844 C 155.601562 3.085938 155.257812 3.308594 154.988281 3.644531 C 154.394531 3.519531 153.8125 3.542969 153.234375 3.71875 C 152.65625 3.894531 152.15625 4.195312 151.730469 4.628906 C 149.335938 4.339844 148.640625 5.996094 149.480469 7.558594 C 149.296875 7.757812 149.15625 7.984375 149.066406 8.238281 C 148.972656 8.492188 148.933594 8.757812 148.945312 9.027344 C 148.960938 9.296875 149.027344 9.554688 149.144531 9.800781 C 149.261719 10.046875 149.421875 10.257812 149.625 10.4375 C 149.457031 10.921875 149.449219 11.40625 149.59375 11.894531 C 149.738281 12.386719 150.011719 12.785156 150.414062 13.101562 C 150.320312 13.578125 150.375 14.039062 150.578125 14.480469 C 150.777344 14.921875 151.089844 15.261719 151.515625 15.5 C 151.546875 16.089844 151.726562 16.628906 152.058594 17.117188 C 152.390625 17.601562 152.824219 17.96875 153.359375 18.214844 C 153.402344 18.503906 153.496094 18.78125 153.636719 19.039062 C 153.777344 19.300781 153.953125 19.527344 154.171875 19.726562 C 154.390625 19.925781 154.632812 20.082031 154.90625 20.199219 C 155.175781 20.3125 155.457031 20.378906 155.753906 20.398438 C 155.917969 20.925781 156.21875 21.359375 156.660156 21.695312 C 157.097656 22.03125 157.59375 22.207031 158.148438 22.222656 C 157.101562 22.707031 156.152344 23.34375 155.300781 24.125 C 154.453125 24.910156 153.742188 25.800781 153.167969 26.804688 C 152.59375 27.808594 152.1875 28.878906 151.945312 30.007812 C 151.707031 31.140625 151.640625 32.28125 151.753906 33.433594 L 151.300781 34.25 C 150.980469 34.464844 150.675781 34.699219 150.382812 34.949219 C 150.089844 35.199219 149.808594 35.464844 149.542969 35.746094 C 149.277344 36.023438 149.027344 36.320312 148.796875 36.625 C 148.5625 36.933594 148.34375 37.25 148.144531 37.582031 C 147.945312 37.910156 147.761719 38.25 147.597656 38.601562 C 147.4375 38.949219 147.292969 39.308594 147.164062 39.671875 C 147.039062 40.039062 146.933594 40.40625 146.847656 40.785156 C 146.761719 41.160156 146.699219 41.539062 146.652344 41.925781 C 146.605469 42.308594 146.582031 42.691406 146.578125 43.078125 C 146.574219 43.464844 146.589844 43.847656 146.628906 44.234375 C 146.664062 44.617188 146.722656 45 146.800781 45.378906 C 146.875 45.753906 146.972656 46.128906 147.09375 46.496094 C 147.210938 46.863281 147.347656 47.222656 147.503906 47.578125 C 147.65625 47.929688 147.832031 48.273438 148.023438 48.609375 C 148.21875 48.941406 148.425781 49.265625 148.65625 49.578125 C 148.882812 49.890625 149.125 50.1875 149.382812 50.472656 C 149.746094 52.117188 150.242188 53.714844 150.871094 55.273438 C 151.003906 56.332031 151.277344 57.351562 151.683594 58.339844 C 152.089844 59.324219 152.621094 60.238281 153.269531 61.082031 C 153.921875 61.925781 154.671875 62.667969 155.519531 63.3125 C 156.367188 63.957031 157.285156 64.476562 158.269531 64.875 C 160.441406 66.621094 162.835938 67.96875 165.457031 68.910156 C 166.566406 70.148438 167.875 71.109375 169.390625 71.789062 C 170.90625 72.472656 172.492188 72.816406 174.152344 72.820312 L 174.292969 72.820312 C 175.953125 72.816406 177.542969 72.472656 179.054688 71.789062 C 180.570312 71.109375 181.882812 70.148438 182.988281 68.910156 C 185.609375 67.96875 188.003906 66.621094 190.175781 64.875 C 191.164062 64.476562 192.078125 63.957031 192.929688 63.3125 C 193.777344 62.667969 194.527344 61.925781 195.175781 61.082031 C 195.828125 60.238281 196.355469 59.324219 196.761719 58.339844 C 197.167969 57.351562 197.441406 56.332031 197.578125 55.273438 C 198.203125 53.714844 198.699219 52.117188 199.0625 50.472656 C 199.320312 50.1875 199.566406 49.890625 199.792969 49.578125 C 200.019531 49.265625 200.230469 48.941406 200.421875 48.609375 C 200.613281 48.273438 200.789062 47.929688 200.945312 47.578125 C 201.101562 47.222656 201.238281 46.863281 201.355469 46.496094 C 201.472656 46.128906 201.570312 45.753906 201.648438 45.378906 C 201.726562 45 201.78125 44.617188 201.820312 44.234375 C 201.855469 43.847656 201.871094 43.464844 201.867188 43.078125 C 201.863281 42.691406 201.839844 42.308594 201.792969 41.925781 C 201.75 41.539062 201.683594 41.160156 201.597656 40.785156 C 201.511719 40.40625 201.40625 40.039062 201.28125 39.671875 C 201.15625 39.308594 201.011719 38.949219 200.847656 38.601562 C 200.683594 38.25 200.5 37.910156 200.300781 37.582031 C 200.101562 37.25 199.886719 36.933594 199.652344 36.625 C 199.417969 36.320312 199.167969 36.023438 198.902344 35.746094 C 198.636719 35.464844 198.359375 35.199219 198.066406 34.949219 C 197.773438 34.699219 197.464844 34.464844 197.148438 34.25 L 196.382812 33.433594 C 196.480469 32.300781 196.40625 31.183594 196.164062 30.074219 C 195.921875 28.964844 195.523438 27.917969 194.960938 26.929688 C 194.402344 25.945312 193.707031 25.066406 192.878906 24.289062 C 192.050781 23.515625 191.128906 22.882812 190.105469 22.390625 C 190.660156 22.375 191.15625 22.199219 191.59375 21.863281 C 192.035156 21.527344 192.335938 21.09375 192.5 20.566406 C 192.796875 20.546875 193.078125 20.480469 193.347656 20.367188 C 193.621094 20.25 193.863281 20.09375 194.082031 19.894531 C 194.300781 19.699219 194.476562 19.46875 194.617188 19.207031 C 194.757812 18.949219 194.851562 18.671875 194.894531 18.382812 C 195.429688 18.136719 195.863281 17.769531 196.195312 17.285156 C 196.527344 16.796875 196.707031 16.257812 196.738281 15.671875 C 197.164062 15.429688 197.476562 15.089844 197.675781 14.648438 C 197.878906 14.207031 197.933594 13.746094 197.839844 13.269531 C 198.242188 12.957031 198.515625 12.554688 198.660156 12.0625 C 198.804688 11.574219 198.796875 11.089844 198.628906 10.605469 C 198.832031 10.425781 198.992188 10.214844 199.109375 9.96875 C 199.226562 9.722656 199.292969 9.464844 199.308594 9.195312 C 199.320312 8.925781 199.28125 8.660156 199.1875 8.40625 C 199.097656 8.152344 198.957031 7.925781 198.773438 7.726562 C 199.613281 6.1875 198.773438 4.535156 196.523438 4.796875 C 196.105469 4.3125 195.59375 3.96875 194.988281 3.761719 C 194.386719 3.554688 193.769531 3.515625 193.144531 3.644531 C 192.875 3.316406 192.539062 3.09375 192.132812 2.976562 C 191.726562 2.855469 191.320312 2.863281 190.917969 2.996094 C 190.492188 2.640625 190.003906 2.4375 189.453125 2.382812 C 188.902344 2.332031 188.386719 2.4375 187.902344 2.707031 C 187.433594 2.394531 186.914062 2.246094 186.347656 2.269531 C 185.785156 2.292969 185.28125 2.476562 184.835938 2.828125 C 184.386719 2.667969 183.929688 2.628906 183.460938 2.710938 C 182.992188 2.792969 182.570312 2.984375 182.203125 3.285156 C 181.914062 3.21875 181.625 3.203125 181.332031 3.230469 C 181.042969 3.261719 180.761719 3.335938 180.492188 3.457031 C 180.226562 3.578125 179.984375 3.738281 179.769531 3.941406 C 179.550781 4.140625 179.375 4.367188 179.234375 4.628906 L 178.296875 4.628906 C 177.253906 5.355469 176.371094 6.242188 175.644531 7.285156 C 174.917969 8.332031 174.398438 9.46875 174.082031 10.703125 C 173.777344 9.441406 173.265625 8.277344 172.539062 7.207031 C 171.8125 6.136719 170.921875 5.230469 169.863281 4.484375 L 168.929688 4.484375 C 168.777344 4.238281 168.589844 4.023438 168.371094 3.835938 C 168.148438 3.652344 167.90625 3.503906 167.640625 3.398438 C 167.371094 3.289062 167.09375 3.226562 166.808594 3.207031 C 166.519531 3.1875 166.238281 3.210938 165.957031 3.285156 C 165.582031 2.972656 165.15625 2.777344 164.675781 2.699219 C 164.199219 2.617188 163.730469 2.660156 163.273438 2.828125 C 162.695312 2.523438 162.078125 2.324219 161.429688 2.226562 Z M 161.429688 2.226562 " fill-opacity="1" fill-rule="nonzero"/></g><path fill="#75a928" d="M 156.425781 8.777344 C 161.148438 10.921875 165.378906 13.792969 169.117188 17.398438 C 168.0625 21.765625 162.339844 21.980469 160.253906 21.867188 C 160.667969 21.730469 160.972656 21.464844 161.167969 21.074219 C 159.925781 20.914062 158.703125 20.660156 157.503906 20.308594 C 157.929688 20.289062 158.257812 20.09375 158.484375 19.730469 C 157.304688 19.464844 156.203125 19.007812 155.179688 18.363281 C 155.65625 18.4375 156.097656 18.339844 156.5 18.074219 C 155.347656 17.574219 154.292969 16.917969 153.335938 16.105469 C 153.804688 16.167969 154.25 16.09375 154.675781 15.890625 C 153.738281 15.316406 152.890625 14.628906 152.140625 13.828125 C 152.59375 13.953125 153.03125 13.914062 153.457031 13.707031 C 152.601562 13.023438 151.875 12.222656 151.277344 11.304688 C 151.78125 11.574219 152.28125 11.574219 152.785156 11.304688 C 152.027344 10.585938 151.363281 9.785156 150.796875 8.90625 C 151.269531 9.011719 151.738281 9.011719 152.210938 8.90625 C 151.953125 8.019531 151.53125 7.21875 150.941406 6.507812 C 152.019531 6.582031 153.097656 6.582031 154.175781 6.507812 L 153.386719 5.546875 C 154.609375 5.320312 155.800781 5.441406 156.957031 5.90625 C 157.386719 5.570312 156.957031 5.140625 156.40625 4.707031 C 157.433594 4.835938 158.429688 5.085938 159.398438 5.453125 C 159.851562 5.019531 159.0625 4.636719 158.683594 4.15625 C 159.820312 4.328125 160.867188 4.734375 161.820312 5.378906 C 162.371094 4.875 161.820312 4.46875 161.511719 4.039062 C 162.507812 4.421875 163.386719 4.988281 164.144531 5.742188 C 164.246094 5.664062 164.328125 5.570312 164.386719 5.457031 C 164.449219 5.347656 164.488281 5.226562 164.503906 5.101562 C 164.515625 4.972656 164.503906 4.851562 164.464844 4.726562 C 164.429688 4.605469 164.371094 4.496094 164.289062 4.398438 C 165.121094 4.855469 165.820312 5.464844 166.394531 6.222656 C 166.582031 6.0625 166.703125 5.863281 166.765625 5.625 C 166.828125 5.390625 166.816406 5.15625 166.730469 4.925781 C 167.59375 5.660156 168.394531 6.460938 169.125 7.324219 C 169.355469 7.011719 169.484375 6.65625 169.507812 6.269531 C 171.761719 8.453125 174.945312 13.972656 170.324219 16.160156 C 166.136719 12.84375 161.496094 10.390625 156.40625 8.789062 Z M 191.867188 8.777344 C 187.144531 10.921875 182.914062 13.792969 179.175781 17.398438 C 180.277344 21.765625 185.953125 21.980469 188.039062 21.867188 C 187.65625 21.703125 187.386719 21.429688 187.222656 21.050781 C 188.464844 20.890625 189.683594 20.632812 190.886719 20.28125 C 190.46875 20.253906 190.148438 20.0625 189.929688 19.707031 C 191.109375 19.441406 192.210938 18.984375 193.234375 18.335938 C 192.75 18.417969 192.300781 18.324219 191.894531 18.050781 C 193.042969 17.550781 194.097656 16.894531 195.054688 16.082031 C 194.585938 16.140625 194.140625 16.070312 193.714844 15.867188 C 194.652344 15.292969 195.5 14.605469 196.253906 13.800781 C 195.796875 13.929688 195.359375 13.886719 194.933594 13.679688 C 195.789062 13 196.515625 12.199219 197.113281 11.28125 C 196.613281 11.550781 196.109375 11.550781 195.605469 11.28125 C 196.363281 10.5625 197.027344 9.761719 197.59375 8.882812 C 197.121094 8.988281 196.652344 8.988281 196.179688 8.882812 C 196.4375 7.992188 196.863281 7.195312 197.449219 6.480469 C 196.371094 6.558594 195.292969 6.558594 194.214844 6.480469 L 195.03125 5.640625 C 193.804688 5.414062 192.617188 5.535156 191.460938 6 C 191.027344 5.664062 191.460938 5.234375 192.011719 4.800781 C 190.984375 4.929688 189.984375 5.179688 189.015625 5.546875 C 188.464844 4.996094 189.230469 4.636719 189.640625 4.152344 C 188.5 4.324219 187.457031 4.734375 186.5 5.378906 C 185.949219 4.875 186.5 4.46875 186.8125 4.035156 C 185.816406 4.417969 184.9375 4.988281 184.179688 5.738281 C 184.074219 5.664062 183.992188 5.570312 183.929688 5.460938 C 183.863281 5.347656 183.824219 5.230469 183.808594 5.105469 C 183.792969 4.976562 183.800781 4.851562 183.835938 4.730469 C 183.871094 4.605469 183.929688 4.496094 184.011719 4.394531 C 183.179688 4.855469 182.476562 5.460938 181.902344 6.21875 C 181.71875 6.058594 181.59375 5.859375 181.53125 5.625 C 181.46875 5.386719 181.480469 5.152344 181.566406 4.921875 C 180.703125 5.65625 179.90625 6.457031 179.171875 7.324219 C 178.941406 7.007812 178.816406 6.65625 178.789062 6.265625 C 176.539062 8.449219 173.355469 13.972656 177.976562 16.15625 C 182.132812 12.851562 186.738281 10.394531 191.792969 8.789062 Z M 191.867188 8.777344 " fill-opacity="1" fill-rule="nonzero"/><path fill="#bc1142" d="M 182.242188 53.355469 C 182.222656 53.859375 182.15625 54.359375 182.039062 54.851562 C 181.921875 55.34375 181.757812 55.820312 181.550781 56.28125 C 181.339844 56.742188 181.089844 57.175781 180.792969 57.585938 C 180.5 57.996094 180.167969 58.375 179.796875 58.71875 C 179.429688 59.066406 179.03125 59.371094 178.601562 59.636719 C 178.171875 59.90625 177.722656 60.128906 177.25 60.304688 C 176.777344 60.484375 176.292969 60.613281 175.792969 60.695312 C 175.296875 60.78125 174.792969 60.8125 174.289062 60.796875 C 173.785156 60.820312 173.28125 60.792969 172.78125 60.714844 C 172.28125 60.640625 171.792969 60.515625 171.316406 60.339844 C 170.839844 60.167969 170.386719 59.949219 169.953125 59.6875 C 169.519531 59.425781 169.117188 59.125 168.746094 58.78125 C 168.371094 58.441406 168.035156 58.066406 167.734375 57.65625 C 167.433594 57.246094 167.175781 56.8125 166.960938 56.355469 C 166.746094 55.894531 166.578125 55.417969 166.457031 54.925781 C 166.335938 54.433594 166.265625 53.933594 166.242188 53.429688 C 166.261719 52.921875 166.328125 52.425781 166.445312 51.933594 C 166.558594 51.441406 166.722656 50.964844 166.933594 50.503906 C 167.140625 50.042969 167.394531 49.605469 167.6875 49.195312 C 167.984375 48.785156 168.316406 48.40625 168.683594 48.0625 C 169.054688 47.71875 169.453125 47.410156 169.882812 47.144531 C 170.308594 46.878906 170.761719 46.65625 171.234375 46.476562 C 171.707031 46.300781 172.191406 46.167969 172.6875 46.085938 C 173.1875 46.003906 173.6875 45.96875 174.191406 45.984375 C 174.699219 45.964844 175.203125 45.992188 175.703125 46.066406 C 176.203125 46.144531 176.691406 46.269531 177.164062 46.441406 C 177.640625 46.613281 178.09375 46.832031 178.527344 47.09375 C 178.960938 47.355469 179.363281 47.660156 179.738281 48 C 180.113281 48.34375 180.449219 48.71875 180.75 49.125 C 181.046875 49.535156 181.304688 49.96875 181.519531 50.429688 C 181.734375 50.886719 181.902344 51.363281 182.023438 51.855469 C 182.144531 52.347656 182.21875 52.847656 182.242188 53.355469 Z M 169.59375 32.230469 C 169.996094 32.550781 170.363281 32.90625 170.695312 33.300781 C 171.03125 33.691406 171.320312 34.109375 171.574219 34.558594 C 171.824219 35.007812 172.027344 35.476562 172.1875 35.964844 C 172.347656 36.453125 172.457031 36.953125 172.519531 37.464844 C 172.582031 37.976562 172.59375 38.488281 172.558594 39 C 172.519531 39.515625 172.433594 40.019531 172.296875 40.515625 C 172.160156 41.011719 171.976562 41.488281 171.75 41.949219 C 171.519531 42.410156 171.25 42.84375 170.933594 43.25 C 170.683594 43.699219 170.390625 44.125 170.058594 44.515625 C 169.722656 44.910156 169.355469 45.269531 168.953125 45.589844 C 168.550781 45.914062 168.121094 46.195312 167.660156 46.433594 C 167.203125 46.671875 166.730469 46.863281 166.234375 47.007812 C 165.738281 47.152344 165.234375 47.25 164.722656 47.296875 C 164.210938 47.34375 163.695312 47.34375 163.183594 47.289062 C 162.671875 47.238281 162.167969 47.136719 161.675781 46.984375 C 161.179688 46.835938 160.707031 46.636719 160.253906 46.394531 C 159.851562 46.074219 159.484375 45.71875 159.148438 45.328125 C 158.816406 44.9375 158.523438 44.515625 158.273438 44.066406 C 158.023438 43.617188 157.816406 43.148438 157.660156 42.660156 C 157.5 42.171875 157.386719 41.671875 157.324219 41.160156 C 157.261719 40.652344 157.25 40.140625 157.289062 39.625 C 157.328125 39.113281 157.414062 38.609375 157.550781 38.113281 C 157.6875 37.617188 157.867188 37.136719 158.097656 36.679688 C 158.328125 36.21875 158.597656 35.785156 158.914062 35.375 C 159.164062 34.925781 159.457031 34.503906 159.789062 34.109375 C 160.121094 33.714844 160.492188 33.355469 160.894531 33.035156 C 161.296875 32.714844 161.726562 32.433594 162.183594 32.195312 C 162.640625 31.957031 163.117188 31.765625 163.613281 31.617188 C 164.105469 31.472656 164.609375 31.375 165.125 31.328125 C 165.636719 31.28125 166.152344 31.285156 166.664062 31.335938 C 167.175781 31.390625 167.679688 31.492188 168.171875 31.640625 C 168.664062 31.792969 169.140625 31.988281 169.59375 32.230469 Z M 178.550781 31.824219 C 178.152344 32.144531 177.78125 32.5 177.449219 32.890625 C 177.117188 33.28125 176.824219 33.703125 176.574219 34.152344 C 176.324219 34.601562 176.117188 35.070312 175.957031 35.558594 C 175.800781 36.046875 175.6875 36.546875 175.625 37.058594 C 175.5625 37.566406 175.550781 38.078125 175.589844 38.59375 C 175.625 39.105469 175.714844 39.609375 175.851562 40.105469 C 175.984375 40.601562 176.167969 41.082031 176.398438 41.539062 C 176.628906 42 176.898438 42.433594 177.210938 42.839844 C 177.464844 43.292969 177.757812 43.714844 178.089844 44.109375 C 178.421875 44.503906 178.792969 44.859375 179.195312 45.183594 C 179.597656 45.503906 180.027344 45.785156 180.484375 46.023438 C 180.941406 46.261719 181.417969 46.453125 181.914062 46.601562 C 182.40625 46.746094 182.910156 46.84375 183.425781 46.890625 C 183.9375 46.9375 184.449219 46.933594 184.964844 46.882812 C 185.476562 46.828125 185.980469 46.726562 186.472656 46.578125 C 186.964844 46.425781 187.4375 46.230469 187.894531 45.984375 C 188.296875 45.667969 188.664062 45.3125 188.996094 44.917969 C 189.328125 44.527344 189.621094 44.109375 189.871094 43.660156 C 190.125 43.210938 190.328125 42.742188 190.488281 42.253906 C 190.648438 41.761719 190.757812 41.265625 190.820312 40.753906 C 190.882812 40.242188 190.894531 39.730469 190.859375 39.21875 C 190.820312 38.703125 190.734375 38.199219 190.597656 37.703125 C 190.460938 37.207031 190.277344 36.730469 190.050781 36.269531 C 189.820312 35.808594 189.546875 35.375 189.234375 34.96875 C 188.984375 34.519531 188.691406 34.09375 188.355469 33.703125 C 188.023438 33.308594 187.65625 32.949219 187.253906 32.625 C 186.847656 32.304688 186.417969 32.023438 185.960938 31.785156 C 185.503906 31.546875 185.027344 31.355469 184.535156 31.210938 C 184.039062 31.066406 183.535156 30.96875 183.023438 30.921875 C 182.507812 30.875 181.996094 30.875 181.484375 30.929688 C 180.96875 30.980469 180.46875 31.082031 179.972656 31.234375 C 179.480469 31.382812 179.007812 31.582031 178.550781 31.824219 Z M 153.023438 35.832031 C 156.617188 34.871094 154.222656 50.691406 151.324219 49.394531 C 151.085938 49.164062 150.863281 48.921875 150.65625 48.664062 C 150.445312 48.410156 150.253906 48.140625 150.074219 47.863281 C 149.898438 47.585938 149.738281 47.296875 149.59375 47 C 149.449219 46.703125 149.320312 46.402344 149.210938 46.089844 C 149.101562 45.777344 149.011719 45.460938 148.9375 45.136719 C 148.863281 44.816406 148.8125 44.492188 148.777344 44.160156 C 148.742188 43.832031 148.726562 43.503906 148.726562 43.175781 C 148.730469 42.84375 148.753906 42.515625 148.792969 42.1875 C 148.835938 41.859375 148.894531 41.535156 148.972656 41.214844 C 149.050781 40.894531 149.148438 40.578125 149.265625 40.269531 C 149.378906 39.957031 149.511719 39.65625 149.664062 39.363281 C 149.8125 39.070312 149.980469 38.785156 150.160156 38.507812 C 150.34375 38.234375 150.542969 37.972656 150.757812 37.71875 C 150.96875 37.46875 151.195312 37.230469 151.4375 37.003906 C 151.679688 36.777344 151.933594 36.566406 152.199219 36.371094 C 152.464844 36.175781 152.738281 35.996094 153.023438 35.832031 Z M 194.410156 35.59375 C 190.816406 34.632812 193.210938 50.449219 196.109375 49.152344 C 196.347656 48.921875 196.570312 48.679688 196.777344 48.425781 C 196.988281 48.167969 197.179688 47.902344 197.359375 47.625 C 197.535156 47.347656 197.695312 47.058594 197.839844 46.761719 C 197.984375 46.464844 198.113281 46.160156 198.222656 45.847656 C 198.332031 45.539062 198.421875 45.21875 198.496094 44.898438 C 198.570312 44.574219 198.621094 44.25 198.65625 43.921875 C 198.691406 43.59375 198.707031 43.265625 198.707031 42.933594 C 198.703125 42.601562 198.679688 42.273438 198.640625 41.945312 C 198.597656 41.617188 198.539062 41.292969 198.460938 40.972656 C 198.382812 40.652344 198.285156 40.335938 198.167969 40.027344 C 198.054688 39.71875 197.921875 39.417969 197.773438 39.121094 C 197.621094 38.828125 197.453125 38.542969 197.273438 38.269531 C 197.089844 37.996094 196.890625 37.730469 196.675781 37.480469 C 196.464844 37.226562 196.238281 36.988281 195.996094 36.765625 C 195.753906 36.539062 195.5 36.328125 195.234375 36.132812 C 194.972656 35.9375 194.695312 35.757812 194.410156 35.59375 Z M 182.242188 23.832031 C 188.421875 22.777344 193.570312 26.472656 193.355469 33.195312 C 193.164062 35.835938 180.042969 24.195312 182.242188 23.832031 Z M 165.136719 23.640625 C 158.957031 22.582031 153.804688 26.277344 154.019531 33 C 154.214844 35.566406 167.410156 24.027344 165.136719 23.640625 Z M 174.023438 22.082031 C 170.335938 22.082031 166.867188 24.816406 166.867188 26.472656 C 166.867188 28.128906 169.792969 30.527344 174.023438 30.578125 C 178.257812 30.625 181.179688 28.945312 181.179688 26.878906 C 181.179688 24.816406 177.136719 22.082031 173.875 22.082031 Z M 174.265625 63.101562 C 177.472656 62.957031 181.785156 64.132812 181.804688 65.691406 C 181.828125 67.253906 177.902344 70.640625 174.042969 70.492188 C 170.1875 70.347656 166.164062 67.230469 166.214844 66.023438 C 166.214844 64.273438 171.003906 62.90625 174.261719 63 Z M 162.382812 53.832031 C 164.777344 56.589844 165.6875 61.464844 163.792969 62.878906 C 161.902344 64.292969 157.589844 63.527344 154.476562 59.039062 C 152.394531 55.246094 152.660156 51.429688 154.140625 50.230469 C 156.34375 48.886719 159.769531 50.707031 162.40625 53.761719 Z M 185.6875 52.949219 C 183.296875 55.851562 181.835938 61.15625 183.628906 62.863281 C 185.355469 64.1875 190.003906 64.015625 193.429688 59.238281 C 193.929688 58.507812 194.3125 57.722656 194.585938 56.882812 C 194.859375 56.039062 195.003906 55.175781 195.027344 54.292969 C 195.046875 53.410156 194.941406 52.539062 194.710938 51.6875 C 194.480469 50.832031 194.132812 50.03125 193.667969 49.277344 C 191.558594 47.644531 188.523438 49.730469 185.691406 52.945312 Z M 185.6875 52.949219 " fill-opacity="1" fill-rule="nonzero"/><g fill="#bc1142" fill-opacity="1"><g transform="translate(18.8373, 63.079922)"><g><path d="M 3.796875 -37.96875 L 20.34375 -37.96875 C 25.1875 -37.96875 28.941406 -36.816406 31.609375 -34.515625 C 34.285156 -32.222656 35.625 -28.960938 35.625 -24.734375 C 35.625 -20.285156 34.285156 -16.832031 31.609375 -14.375 C 28.941406 -11.914062 25.1875 -10.6875 20.34375 -10.6875 L 13.453125 -10.6875 L 13.453125 0 L 3.796875 0 Z M 13.453125 -30.375 L 13.453125 -18.28125 L 19.84375 -18.28125 C 21.976562 -18.28125 23.625 -18.800781 24.78125 -19.84375 C 25.9375 -20.894531 26.515625 -22.414062 26.515625 -24.40625 C 26.515625 -26.351562 25.9375 -27.832031 24.78125 -28.84375 C 23.625 -29.863281 21.976562 -30.375 19.84375 -30.375 Z M 13.453125 -30.375 "/></g></g></g><g fill="#bc1142" fill-opacity="1"><g transform="translate(67.80824, 63.079922)"><g><path d="M 13.453125 0 L 3.796875 0 L 3.796875 -37.96875 L 13.453125 -37.96875 Z M 13.453125 0 "/></g></g></g><g fill="#bc1142" fill-opacity="1"><g transform="translate(97.148234, 63.079922)"><g><path d="M 28.53125 0 L 18.5 -14.921875 L 13.453125 -9.328125 L 13.453125 0 L 3.796875 0 L 3.796875 -37.96875 L 13.453125 -37.96875 L 13.453125 -21.53125 L 27.984375 -37.96875 L 39.15625 -37.96875 L 25.0625 -22.234375 L 40.078125 0 Z M 28.53125 0 "/></g></g></g><g fill="#000000" fill-opacity="1"><g transform="translate(205.906766, 63.079922)"><g><path d="M 38.828125 0 L 30.3125 0 L 12.859375 -23.375 L 12.859375 0 L 3.796875 0 L 3.796875 -37.96875 L 12.3125 -37.96875 L 29.828125 -14.53125 L 29.828125 -37.96875 L 38.828125 -37.96875 Z M 38.828125 0 "/></g></g></g><g fill="#000000" fill-opacity="1"><g transform="translate(260.626, 63.079922)"><g><path d="M 33.515625 -30.375 L 13.453125 -30.375 L 13.453125 -22.828125 L 31.5625 -22.828125 L 31.5625 -15.234375 L 13.453125 -15.234375 L 13.453125 -7.59375 L 34.109375 -7.59375 L 34.109375 0 L 3.796875 0 L 3.796875 -37.96875 L 33.515625 -37.96875 Z M 33.515625 -30.375 "/></g></g></g><g fill="#000000" fill-opacity="1"><g transform="translate(309.271567, 63.079922)"><g><path d="M 28.53125 0 L 18.5 -14.921875 L 13.453125 -9.328125 L 13.453125 0 L 3.796875 0 L 3.796875 -37.96875 L 13.453125 -37.96875 L 13.453125 -21.53125 L 27.984375 -37.96875 L 39.15625 -37.96875 L 25.0625 -22.234375 L 40.078125 0 Z M 28.53125 0 "/></g></g></g></svg>