<svg xmlns="http://www.w3.org/2000/svg" xmlns:xlink="http://www.w3.org/1999/xlink" width="500" zoomAndPan="magnify" viewBox="0 0 375 374.999991" height="500" preserveAspectRatio="xMidYMid meet" version="1.0"><defs><g/><clipPath id="id1"><path d="M 152.257812 140 L 210.757812 140 L 210.757812 214 L 152.257812 214 Z M 152.257812 140 " clip-rule="nonzero"/></clipPath></defs><g clip-path="url(#id1)"><path fill="#000000" d="M 168.125 140.117188 C 167.65625 140.144531 167.25 140.3125 166.898438 140.621094 C 166.390625 140.339844 165.847656 140.226562 165.273438 140.28125 C 164.695312 140.335938 164.183594 140.550781 163.742188 140.921875 C 163.316406 140.777344 162.886719 140.765625 162.457031 140.890625 C 162.027344 141.015625 161.667969 141.25 161.382812 141.597656 C 160.765625 141.46875 160.15625 141.496094 159.550781 141.679688 C 158.945312 141.859375 158.421875 142.179688 157.976562 142.628906 C 155.472656 142.328125 154.742188 144.0625 155.621094 145.695312 C 155.429688 145.902344 155.285156 146.140625 155.1875 146.40625 C 155.089844 146.675781 155.050781 146.949219 155.0625 147.234375 C 155.078125 147.515625 155.148438 147.785156 155.269531 148.042969 C 155.390625 148.296875 155.558594 148.519531 155.773438 148.707031 C 155.601562 149.214844 155.589844 149.722656 155.742188 150.234375 C 155.894531 150.746094 156.179688 151.167969 156.597656 151.496094 C 156.5 151.996094 156.558594 152.476562 156.769531 152.9375 C 156.980469 153.402344 157.308594 153.757812 157.75 154.007812 C 157.785156 154.625 157.972656 155.1875 158.320312 155.695312 C 158.667969 156.207031 159.121094 156.589844 159.679688 156.84375 C 159.726562 157.148438 159.824219 157.4375 159.972656 157.710938 C 160.117188 157.980469 160.304688 158.222656 160.53125 158.429688 C 160.757812 158.636719 161.015625 158.800781 161.296875 158.921875 C 161.582031 159.042969 161.878906 159.113281 162.183594 159.128906 C 162.355469 159.683594 162.671875 160.136719 163.132812 160.488281 C 163.59375 160.835938 164.113281 161.023438 164.691406 161.039062 C 164.144531 161.292969 163.625 161.585938 163.125 161.917969 C 162.625 162.253906 162.15625 162.625 161.714844 163.03125 C 161.273438 163.4375 160.863281 163.875 160.488281 164.347656 C 160.117188 164.816406 159.777344 165.3125 159.480469 165.835938 C 159.183594 166.359375 158.925781 166.898438 158.714844 167.460938 C 158.5 168.023438 158.328125 168.597656 158.203125 169.1875 C 158.078125 169.773438 158 170.371094 157.964844 170.96875 C 157.929688 171.570312 157.941406 172.171875 158 172.769531 L 157.527344 173.625 C 157.191406 173.851562 156.871094 174.09375 156.566406 174.355469 C 156.257812 174.617188 155.964844 174.894531 155.6875 175.1875 C 155.410156 175.480469 155.148438 175.789062 154.90625 176.109375 C 154.660156 176.429688 154.433594 176.765625 154.226562 177.109375 C 154.015625 177.453125 153.824219 177.8125 153.65625 178.175781 C 153.484375 178.542969 153.332031 178.914062 153.199219 179.296875 C 153.070312 179.679688 152.960938 180.066406 152.871094 180.460938 C 152.78125 180.855469 152.710938 181.253906 152.664062 181.652344 C 152.617188 182.054688 152.589844 182.457031 152.585938 182.863281 C 152.582031 183.265625 152.597656 183.667969 152.636719 184.070312 C 152.675781 184.472656 152.734375 184.871094 152.816406 185.269531 C 152.898438 185.664062 153 186.054688 153.125 186.4375 C 153.246094 186.824219 153.390625 187.199219 153.550781 187.570312 C 153.714844 187.9375 153.898438 188.296875 154.097656 188.648438 C 154.300781 189 154.519531 189.335938 154.757812 189.664062 C 154.996094 189.988281 155.25 190.300781 155.519531 190.601562 C 155.902344 192.316406 156.417969 193.992188 157.078125 195.621094 C 157.21875 196.730469 157.503906 197.796875 157.929688 198.828125 C 158.355469 199.859375 158.90625 200.816406 159.589844 201.699219 C 160.269531 202.582031 161.054688 203.359375 161.941406 204.035156 C 162.828125 204.707031 163.789062 205.253906 164.820312 205.671875 C 167.09375 207.496094 169.597656 208.902344 172.339844 209.890625 C 173.5 211.1875 174.871094 212.191406 176.457031 212.902344 C 178.039062 213.617188 179.699219 213.976562 181.4375 213.984375 L 181.585938 213.984375 C 183.324219 213.976562 184.984375 213.617188 186.570312 212.902344 C 188.152344 212.191406 189.523438 211.1875 190.683594 209.890625 C 193.425781 208.902344 195.933594 207.496094 198.203125 205.671875 C 199.234375 205.253906 200.195312 204.707031 201.082031 204.035156 C 201.972656 203.359375 202.753906 202.582031 203.4375 201.699219 C 204.117188 200.816406 204.667969 199.859375 205.097656 198.828125 C 205.523438 197.796875 205.804688 196.730469 205.949219 195.621094 C 206.605469 193.992188 207.125 192.316406 207.503906 190.601562 C 207.773438 190.300781 208.027344 189.988281 208.265625 189.664062 C 208.503906 189.335938 208.722656 189 208.925781 188.648438 C 209.125 188.296875 209.308594 187.9375 209.472656 187.570312 C 209.636719 187.199219 209.777344 186.824219 209.902344 186.4375 C 210.023438 186.054688 210.125 185.664062 210.207031 185.269531 C 210.289062 184.871094 210.347656 184.472656 210.386719 184.070312 C 210.425781 183.667969 210.441406 183.265625 210.4375 182.863281 C 210.433594 182.457031 210.40625 182.054688 210.359375 181.652344 C 210.3125 181.253906 210.246094 180.855469 210.15625 180.460938 C 210.066406 180.066406 209.953125 179.679688 209.824219 179.296875 C 209.691406 178.914062 209.539062 178.542969 209.371094 178.175781 C 209.199219 177.8125 209.007812 177.453125 208.800781 177.109375 C 208.589844 176.765625 208.363281 176.429688 208.117188 176.109375 C 207.875 175.789062 207.613281 175.480469 207.335938 175.1875 C 207.058594 174.894531 206.765625 174.617188 206.457031 174.355469 C 206.152344 174.09375 205.832031 173.851562 205.5 173.625 L 204.699219 172.769531 C 204.800781 171.585938 204.722656 170.414062 204.472656 169.253906 C 204.21875 168.09375 203.796875 167 203.210938 165.964844 C 202.625 164.933594 201.898438 164.011719 201.03125 163.203125 C 200.164062 162.394531 199.199219 161.730469 198.132812 161.214844 C 198.710938 161.199219 199.230469 161.015625 199.6875 160.664062 C 200.148438 160.3125 200.464844 159.859375 200.636719 159.308594 C 200.945312 159.289062 201.238281 159.21875 201.523438 159.097656 C 201.808594 158.976562 202.0625 158.8125 202.289062 158.605469 C 202.519531 158.398438 202.707031 158.15625 202.851562 157.886719 C 202.996094 157.613281 203.09375 157.324219 203.144531 157.019531 C 203.703125 156.765625 204.15625 156.382812 204.503906 155.871094 C 204.847656 155.363281 205.039062 154.800781 205.070312 154.183594 C 205.515625 153.933594 205.839844 153.578125 206.054688 153.113281 C 206.265625 152.652344 206.320312 152.171875 206.222656 151.671875 C 206.644531 151.34375 206.929688 150.921875 207.082031 150.410156 C 207.234375 149.898438 207.222656 149.390625 207.050781 148.882812 C 207.261719 148.695312 207.429688 148.472656 207.554688 148.21875 C 207.675781 147.960938 207.742188 147.691406 207.757812 147.410156 C 207.773438 147.125 207.730469 146.851562 207.632812 146.582031 C 207.539062 146.316406 207.394531 146.078125 207.199219 145.871094 C 208.078125 144.261719 207.199219 142.53125 204.84375 142.804688 C 204.40625 142.300781 203.871094 141.941406 203.242188 141.722656 C 202.609375 141.507812 201.964844 141.464844 201.3125 141.597656 C 201.027344 141.257812 200.675781 141.023438 200.25 140.898438 C 199.824219 140.777344 199.402344 140.78125 198.980469 140.921875 C 198.535156 140.550781 198.027344 140.335938 197.449219 140.28125 C 196.875 140.226562 196.332031 140.339844 195.824219 140.621094 C 195.585938 140.460938 195.328125 140.339844 195.050781 140.261719 C 194.769531 140.183594 194.488281 140.148438 194.199219 140.160156 C 193.910156 140.171875 193.632812 140.230469 193.363281 140.328125 C 193.089844 140.429688 192.84375 140.570312 192.617188 140.746094 C 192.148438 140.582031 191.667969 140.539062 191.175781 140.625 C 190.6875 140.710938 190.246094 140.910156 189.859375 141.222656 C 189.5625 141.15625 189.257812 141.136719 188.953125 141.167969 C 188.644531 141.199219 188.351562 141.277344 188.074219 141.40625 C 187.792969 141.53125 187.539062 141.699219 187.3125 141.910156 C 187.085938 142.117188 186.902344 142.359375 186.753906 142.628906 L 185.773438 142.628906 C 184.683594 143.390625 183.757812 144.316406 183 145.410156 C 182.238281 146.503906 181.695312 147.695312 181.363281 148.984375 C 181.046875 147.667969 180.507812 146.449219 179.75 145.328125 C 178.988281 144.207031 178.054688 143.257812 176.949219 142.480469 L 175.972656 142.480469 C 175.8125 142.222656 175.617188 141.996094 175.386719 141.800781 C 175.15625 141.609375 174.902344 141.453125 174.621094 141.339844 C 174.34375 141.226562 174.054688 141.160156 173.753906 141.140625 C 173.453125 141.121094 173.15625 141.148438 172.863281 141.222656 C 172.472656 140.898438 172.023438 140.695312 171.523438 140.609375 C 171.023438 140.523438 170.53125 140.570312 170.054688 140.746094 C 169.449219 140.429688 168.804688 140.21875 168.125 140.117188 Z M 168.125 140.117188 " fill-opacity="1" fill-rule="nonzero"/></g><path fill="#75a928" d="M 162.886719 146.972656 C 167.832031 149.214844 172.257812 152.222656 176.167969 155.992188 C 175.066406 160.5625 169.078125 160.789062 166.898438 160.667969 C 167.332031 160.523438 167.648438 160.246094 167.851562 159.835938 C 166.550781 159.671875 165.273438 159.402344 164.015625 159.035156 C 164.464844 159.015625 164.808594 158.8125 165.046875 158.433594 C 163.808594 158.15625 162.65625 157.675781 161.585938 157 C 162.085938 157.078125 162.542969 156.980469 162.964844 156.699219 C 161.761719 156.175781 160.660156 155.488281 159.65625 154.640625 C 160.144531 154.703125 160.613281 154.628906 161.058594 154.414062 C 160.078125 153.816406 159.191406 153.09375 158.402344 152.253906 C 158.878906 152.386719 159.339844 152.34375 159.785156 152.128906 C 158.886719 151.414062 158.128906 150.578125 157.503906 149.617188 C 158.027344 149.898438 158.554688 149.898438 159.082031 149.617188 C 158.285156 148.863281 157.59375 148.027344 157 147.105469 C 157.492188 147.21875 157.988281 147.21875 158.480469 147.105469 C 158.210938 146.175781 157.765625 145.339844 157.152344 144.59375 C 158.277344 144.675781 159.40625 144.675781 160.535156 144.59375 L 159.707031 143.589844 C 160.988281 143.355469 162.234375 143.480469 163.445312 143.96875 C 163.894531 143.617188 163.445312 143.167969 162.867188 142.714844 C 163.941406 142.847656 164.988281 143.105469 166 143.492188 C 166.476562 143.039062 165.648438 142.636719 165.253906 142.136719 C 166.441406 142.316406 167.539062 142.742188 168.535156 143.417969 C 169.113281 142.890625 168.535156 142.464844 168.210938 142.011719 C 169.253906 142.414062 170.171875 143.007812 170.964844 143.796875 C 171.070312 143.714844 171.15625 143.613281 171.222656 143.5 C 171.285156 143.382812 171.328125 143.257812 171.339844 143.125 C 171.355469 142.992188 171.34375 142.863281 171.304688 142.734375 C 171.265625 142.605469 171.203125 142.492188 171.117188 142.390625 C 171.984375 142.867188 172.722656 143.503906 173.320312 144.296875 C 173.515625 144.128906 173.644531 143.921875 173.710938 143.675781 C 173.773438 143.425781 173.761719 143.183594 173.671875 142.941406 C 174.574219 143.710938 175.410156 144.546875 176.179688 145.453125 C 176.417969 145.121094 176.550781 144.753906 176.578125 144.347656 C 178.933594 146.632812 182.265625 152.410156 177.429688 154.695312 C 173.050781 151.226562 168.195312 148.65625 162.871094 146.984375 Z M 199.976562 146.972656 C 195.03125 149.214844 190.605469 152.222656 186.691406 155.992188 C 187.84375 160.5625 193.785156 160.789062 195.964844 160.667969 C 195.570312 160.496094 195.285156 160.210938 195.113281 159.8125 C 196.414062 159.644531 197.691406 159.378906 198.945312 159.007812 C 198.507812 158.980469 198.175781 158.78125 197.945312 158.40625 C 199.179688 158.128906 200.332031 157.652344 201.402344 156.976562 C 200.894531 157.058594 200.429688 156.960938 200 156.675781 C 201.203125 156.148438 202.308594 155.464844 203.308594 154.613281 C 202.820312 154.675781 202.351562 154.601562 201.90625 154.386719 C 202.890625 153.789062 203.773438 153.070312 204.5625 152.230469 C 204.085938 152.363281 203.625 152.320312 203.183594 152.101562 C 204.078125 151.386719 204.839844 150.550781 205.464844 149.589844 C 204.9375 149.871094 204.410156 149.871094 203.886719 149.589844 C 204.679688 148.839844 205.375 148 205.964844 147.082031 C 205.472656 147.191406 204.980469 147.191406 204.488281 147.082031 C 204.757812 146.152344 205.199219 145.3125 205.816406 144.570312 C 204.6875 144.648438 203.558594 144.648438 202.429688 144.570312 L 203.285156 143.6875 C 202.003906 143.453125 200.757812 143.582031 199.546875 144.066406 C 199.097656 143.714844 199.546875 143.265625 200.125 142.8125 C 199.050781 142.945312 198.003906 143.207031 196.992188 143.589844 C 196.414062 143.011719 197.214844 142.636719 197.640625 142.132812 C 196.453125 142.3125 195.355469 142.738281 194.359375 143.414062 C 193.78125 142.886719 194.359375 142.460938 194.683594 142.007812 C 193.640625 142.410156 192.722656 143.003906 191.929688 143.792969 C 191.820312 143.714844 191.734375 143.617188 191.667969 143.5 C 191.597656 143.382812 191.558594 143.261719 191.539062 143.128906 C 191.523438 142.996094 191.535156 142.863281 191.570312 142.734375 C 191.609375 142.605469 191.667969 142.492188 191.753906 142.386719 C 190.882812 142.867188 190.148438 143.5 189.546875 144.292969 C 189.351562 144.128906 189.222656 143.917969 189.160156 143.671875 C 189.09375 143.421875 189.105469 143.179688 189.195312 142.9375 C 188.292969 143.707031 187.457031 144.542969 186.691406 145.449219 C 186.449219 145.121094 186.316406 144.75 186.289062 144.34375 C 183.933594 146.628906 180.601562 152.40625 185.4375 154.691406 C 189.785156 151.234375 194.605469 148.664062 199.898438 146.980469 Z M 199.976562 146.972656 " fill-opacity="1" fill-rule="nonzero"/><path fill="#bc1142" d="M 189.902344 193.613281 C 189.882812 194.144531 189.8125 194.664062 189.691406 195.179688 C 189.566406 195.695312 189.398438 196.195312 189.179688 196.675781 C 188.960938 197.15625 188.695312 197.613281 188.386719 198.042969 C 188.078125 198.472656 187.730469 198.867188 187.34375 199.230469 C 186.957031 199.589844 186.542969 199.910156 186.09375 200.191406 C 185.644531 200.46875 185.171875 200.703125 184.679688 200.886719 C 184.183594 201.074219 183.675781 201.210938 183.15625 201.296875 C 182.632812 201.382812 182.109375 201.417969 181.582031 201.402344 C 181.050781 201.425781 180.527344 201.398438 180.003906 201.316406 C 179.480469 201.238281 178.96875 201.105469 178.472656 200.925781 C 177.972656 200.746094 177.496094 200.515625 177.046875 200.242188 C 176.59375 199.96875 176.171875 199.652344 175.777344 199.292969 C 175.386719 198.933594 175.035156 198.542969 174.722656 198.117188 C 174.410156 197.6875 174.140625 197.234375 173.914062 196.753906 C 173.691406 196.273438 173.515625 195.773438 173.386719 195.261719 C 173.261719 194.746094 173.183594 194.222656 173.160156 193.691406 C 173.179688 193.164062 173.25 192.640625 173.371094 192.125 C 173.492188 191.609375 173.664062 191.113281 173.882812 190.628906 C 174.101562 190.148438 174.367188 189.695312 174.675781 189.265625 C 174.984375 188.835938 175.332031 188.4375 175.714844 188.078125 C 176.101562 187.714844 176.519531 187.394531 176.96875 187.117188 C 177.417969 186.835938 177.890625 186.605469 178.382812 186.417969 C 178.878906 186.230469 179.386719 186.09375 179.90625 186.007812 C 180.429688 185.921875 180.953125 185.886719 181.480469 185.90625 C 182.007812 185.882812 182.535156 185.910156 183.058594 185.988281 C 183.582031 186.070312 184.09375 186.199219 184.589844 186.378906 C 185.089844 186.5625 185.5625 186.789062 186.015625 187.0625 C 186.46875 187.339844 186.890625 187.65625 187.28125 188.011719 C 187.671875 188.371094 188.027344 188.761719 188.339844 189.191406 C 188.652344 189.617188 188.921875 190.070312 189.148438 190.550781 C 189.371094 191.03125 189.546875 191.53125 189.675781 192.046875 C 189.800781 192.5625 189.875 193.085938 189.902344 193.613281 Z M 176.667969 171.511719 C 177.089844 171.847656 177.472656 172.21875 177.820312 172.628906 C 178.171875 173.039062 178.476562 173.480469 178.738281 173.949219 C 179 174.417969 179.214844 174.910156 179.382812 175.417969 C 179.550781 175.929688 179.664062 176.453125 179.730469 176.988281 C 179.796875 177.523438 179.808594 178.058594 179.769531 178.59375 C 179.730469 179.132812 179.636719 179.660156 179.496094 180.179688 C 179.355469 180.699219 179.164062 181.199219 178.921875 181.679688 C 178.683594 182.160156 178.398438 182.617188 178.070312 183.042969 C 177.808594 183.511719 177.5 183.957031 177.152344 184.367188 C 176.804688 184.78125 176.417969 185.15625 175.996094 185.492188 C 175.574219 185.828125 175.125 186.121094 174.648438 186.371094 C 174.167969 186.621094 173.671875 186.820312 173.152344 186.972656 C 172.636719 187.125 172.109375 187.226562 171.570312 187.277344 C 171.035156 187.328125 170.496094 187.324219 169.960938 187.269531 C 169.421875 187.214844 168.898438 187.105469 168.382812 186.949219 C 167.867188 186.792969 167.371094 186.585938 166.894531 186.332031 C 166.472656 185.996094 166.089844 185.625 165.738281 185.214844 C 165.390625 184.804688 165.085938 184.367188 164.824219 183.898438 C 164.5625 183.425781 164.347656 182.9375 164.179688 182.425781 C 164.011719 181.914062 163.894531 181.390625 163.832031 180.855469 C 163.765625 180.320312 163.753906 179.785156 163.792969 179.25 C 163.832031 178.710938 163.921875 178.183594 164.066406 177.664062 C 164.207031 177.148438 164.398438 176.648438 164.640625 176.164062 C 164.878906 175.683594 165.164062 175.230469 165.492188 174.804688 C 165.753906 174.332031 166.058594 173.890625 166.410156 173.476562 C 166.757812 173.066406 167.144531 172.691406 167.566406 172.351562 C 167.988281 172.015625 168.4375 171.722656 168.914062 171.472656 C 169.394531 171.222656 169.890625 171.023438 170.410156 170.871094 C 170.925781 170.71875 171.453125 170.617188 171.992188 170.566406 C 172.527344 170.519531 173.066406 170.519531 173.601562 170.578125 C 174.136719 170.632812 174.664062 170.738281 175.179688 170.894531 C 175.695312 171.054688 176.191406 171.257812 176.667969 171.511719 Z M 186.042969 171.085938 C 185.621094 171.421875 185.238281 171.792969 184.886719 172.203125 C 184.539062 172.613281 184.234375 173.050781 183.972656 173.519531 C 183.710938 173.992188 183.496094 174.480469 183.328125 174.992188 C 183.160156 175.503906 183.042969 176.027344 182.980469 176.5625 C 182.914062 177.097656 182.902344 177.632812 182.941406 178.167969 C 182.980469 178.703125 183.070312 179.234375 183.214844 179.753906 C 183.355469 180.269531 183.546875 180.769531 183.789062 181.253906 C 184.027344 181.734375 184.3125 182.1875 184.640625 182.613281 C 184.902344 183.085938 185.207031 183.527344 185.558594 183.941406 C 185.90625 184.351562 186.292969 184.726562 186.714844 185.0625 C 187.136719 185.402344 187.585938 185.695312 188.0625 185.945312 C 188.542969 186.195312 189.039062 186.394531 189.558594 186.546875 C 190.074219 186.699219 190.601562 186.800781 191.140625 186.851562 C 191.675781 186.898438 192.214844 186.898438 192.75 186.839844 C 193.285156 186.785156 193.8125 186.679688 194.328125 186.523438 C 194.84375 186.363281 195.339844 186.160156 195.816406 185.90625 C 196.238281 185.570312 196.621094 185.199219 196.96875 184.789062 C 197.320312 184.378906 197.625 183.9375 197.886719 183.46875 C 198.148438 183 198.363281 182.507812 198.53125 181.996094 C 198.699219 181.488281 198.8125 180.964844 198.878906 180.429688 C 198.945312 179.894531 198.957031 179.359375 198.917969 178.824219 C 198.878906 178.285156 198.785156 177.757812 198.644531 177.238281 C 198.503906 176.71875 198.3125 176.21875 198.070312 175.738281 C 197.832031 175.257812 197.546875 174.800781 197.21875 174.375 C 196.957031 173.90625 196.648438 173.460938 196.300781 173.050781 C 195.953125 172.636719 195.566406 172.261719 195.144531 171.925781 C 194.722656 171.589844 194.273438 171.296875 193.792969 171.046875 C 193.316406 170.796875 192.816406 170.597656 192.300781 170.445312 C 191.785156 170.292969 191.257812 170.191406 190.71875 170.140625 C 190.183594 170.089844 189.644531 170.09375 189.109375 170.148438 C 188.570312 170.203125 188.046875 170.308594 187.53125 170.46875 C 187.015625 170.625 186.519531 170.832031 186.042969 171.085938 Z M 159.332031 175.28125 C 163.089844 174.277344 160.585938 190.824219 157.550781 189.46875 C 157.304688 189.230469 157.070312 188.976562 156.851562 188.707031 C 156.632812 188.441406 156.429688 188.160156 156.246094 187.871094 C 156.058594 187.578125 155.890625 187.277344 155.738281 186.96875 C 155.589844 186.65625 155.457031 186.339844 155.339844 186.011719 C 155.226562 185.6875 155.132812 185.355469 155.054688 185.015625 C 154.980469 184.679688 154.921875 184.339844 154.886719 183.996094 C 154.847656 183.652344 154.832031 183.308594 154.835938 182.960938 C 154.839844 182.617188 154.863281 182.273438 154.90625 181.929688 C 154.949219 181.585938 155.011719 181.246094 155.09375 180.910156 C 155.175781 180.574219 155.277344 180.246094 155.398438 179.921875 C 155.515625 179.597656 155.65625 179.28125 155.8125 178.972656 C 155.96875 178.667969 156.144531 178.367188 156.335938 178.082031 C 156.527344 177.792969 156.734375 177.519531 156.957031 177.253906 C 157.179688 176.992188 157.417969 176.742188 157.671875 176.503906 C 157.921875 176.269531 158.1875 176.050781 158.464844 175.84375 C 158.742188 175.640625 159.03125 175.453125 159.332031 175.28125 Z M 202.632812 175.027344 C 198.875 174.023438 201.378906 190.574219 204.414062 189.21875 C 204.660156 188.976562 204.894531 188.722656 205.113281 188.457031 C 205.332031 188.1875 205.53125 187.910156 205.71875 187.617188 C 205.90625 187.328125 206.074219 187.027344 206.226562 186.714844 C 206.375 186.40625 206.507812 186.085938 206.625 185.761719 C 206.738281 185.433594 206.832031 185.101562 206.910156 184.765625 C 206.984375 184.429688 207.042969 184.089844 207.078125 183.746094 C 207.117188 183.402344 207.132812 183.054688 207.128906 182.710938 C 207.125 182.363281 207.101562 182.019531 207.058594 181.679688 C 207.015625 181.335938 206.953125 180.996094 206.871094 180.660156 C 206.789062 180.324219 206.6875 179.996094 206.566406 179.671875 C 206.445312 179.347656 206.308594 179.03125 206.152344 178.722656 C 205.996094 178.414062 205.820312 178.117188 205.628906 177.828125 C 205.4375 177.542969 205.230469 177.265625 205.007812 177.003906 C 204.785156 176.738281 204.546875 176.492188 204.292969 176.253906 C 204.042969 176.019531 203.777344 175.796875 203.5 175.59375 C 203.222656 175.386719 202.933594 175.199219 202.632812 175.027344 Z M 189.902344 162.722656 C 196.371094 161.617188 201.757812 165.488281 201.53125 172.519531 C 201.332031 175.28125 187.601562 163.101562 189.902344 162.722656 Z M 172.003906 162.523438 C 165.539062 161.417969 160.148438 165.285156 160.375 172.320312 C 160.574219 175.003906 174.382812 162.925781 172.003906 162.523438 Z M 181.304688 160.890625 C 177.445312 160.890625 173.816406 163.753906 173.816406 165.488281 C 173.816406 167.21875 176.875 169.730469 181.304688 169.78125 C 185.734375 169.832031 188.792969 168.074219 188.792969 165.914062 C 188.792969 163.753906 184.558594 160.890625 181.148438 160.890625 Z M 181.554688 203.8125 C 184.914062 203.660156 189.421875 204.890625 189.445312 206.523438 C 189.46875 208.160156 185.363281 211.699219 181.324219 211.546875 C 177.289062 211.394531 173.078125 208.132812 173.132812 206.871094 C 173.132812 205.039062 178.144531 203.609375 181.550781 203.707031 Z M 169.121094 194.113281 C 171.628906 197 172.578125 202.101562 170.601562 203.582031 C 168.621094 205.0625 164.109375 204.257812 160.851562 199.5625 C 158.671875 195.59375 158.953125 191.601562 160.5 190.34375 C 162.804688 188.9375 166.390625 190.847656 169.144531 194.039062 Z M 193.507812 193.191406 C 191.003906 196.230469 189.476562 201.78125 191.355469 203.5625 C 193.160156 204.949219 198.023438 204.769531 201.609375 199.769531 C 202.128906 199.007812 202.535156 198.1875 202.816406 197.304688 C 203.101562 196.425781 203.257812 195.523438 203.277344 194.597656 C 203.300781 193.671875 203.191406 192.761719 202.949219 191.867188 C 202.707031 190.976562 202.34375 190.136719 201.859375 189.347656 C 199.652344 187.640625 196.472656 189.824219 193.511719 193.1875 Z M 193.507812 193.191406 " fill-opacity="1" fill-rule="nonzero"/><g fill="#bc1142" fill-opacity="1"><g transform="translate(18.925463, 203.79044)"><g><path d="M 3.96875 -39.71875 L 21.28125 -39.71875 C 26.351562 -39.71875 30.285156 -38.515625 33.078125 -36.109375 C 35.878906 -33.710938 37.28125 -30.300781 37.28125 -25.875 C 37.28125 -21.21875 35.878906 -17.601562 33.078125 -15.03125 C 30.285156 -12.46875 26.351562 -11.1875 21.28125 -11.1875 L 14.078125 -11.1875 L 14.078125 0 L 3.96875 0 Z M 14.078125 -31.78125 L 14.078125 -19.125 L 20.765625 -19.125 C 23.003906 -19.125 24.726562 -19.671875 25.9375 -20.765625 C 27.144531 -21.867188 27.75 -23.457031 27.75 -25.53125 C 27.75 -27.582031 27.144531 -29.132812 25.9375 -30.1875 C 24.726562 -31.25 23.003906 -31.78125 20.765625 -31.78125 Z M 14.078125 -31.78125 "/></g></g></g><g fill="#bc1142" fill-opacity="1"><g transform="translate(70.165717, 203.79044)"><g><path d="M 14.078125 0 L 3.96875 0 L 3.96875 -39.71875 L 14.078125 -39.71875 Z M 14.078125 0 "/></g></g></g><g fill="#bc1142" fill-opacity="1"><g transform="translate(100.865327, 203.79044)"><g><path d="M 29.84375 0 L 19.359375 -15.609375 L 14.078125 -9.765625 L 14.078125 0 L 3.96875 0 L 3.96875 -39.71875 L 14.078125 -39.71875 L 14.078125 -22.53125 L 29.28125 -39.71875 L 40.96875 -39.71875 L 26.21875 -23.265625 L 41.9375 0 Z M 29.84375 0 "/></g></g></g><g fill="#000000" fill-opacity="1"><g transform="translate(214.66373, 203.79044)"><g><path d="M 40.640625 0 L 31.71875 0 L 13.453125 -24.453125 L 13.453125 0 L 3.96875 0 L 3.96875 -39.71875 L 12.875 -39.71875 L 31.21875 -15.203125 L 31.21875 -39.71875 L 40.640625 -39.71875 Z M 40.640625 0 "/></g></g></g><g fill="#000000" fill-opacity="1"><g transform="translate(271.918654, 203.79044)"><g><path d="M 35.078125 -31.78125 L 14.078125 -31.78125 L 14.078125 -23.890625 L 33.03125 -23.890625 L 33.03125 -15.953125 L 14.078125 -15.953125 L 14.078125 -7.9375 L 35.703125 -7.9375 L 35.703125 0 L 3.96875 0 L 3.96875 -39.71875 L 35.078125 -39.71875 Z M 35.078125 -31.78125 "/></g></g></g><g fill="#000000" fill-opacity="1"><g transform="translate(322.818458, 203.79044)"><g><path d="M 29.84375 0 L 19.359375 -15.609375 L 14.078125 -9.765625 L 14.078125 0 L 3.96875 0 L 3.96875 -39.71875 L 14.078125 -39.71875 L 14.078125 -22.53125 L 29.28125 -39.71875 L 40.96875 -39.71875 L 26.21875 -23.265625 L 41.9375 0 Z M 29.84375 0 "/></g></g></g></svg>